<svg width="61" height="13" viewBox="0 0 61 13" fill="none" xmlns="http://www.w3.org/2000/svg">
<path d="M9.768 9.408H4.168L3.064 12H0.92L5.96 0.799999H8.008L13.064 12H10.888L9.768 9.408ZM9.08 7.776L6.968 2.88L4.872 7.776H9.08ZM22.4244 6.176C23.043 6.37867 23.5337 6.72 23.8964 7.2C24.259 7.66933 24.4404 8.256 24.4404 8.96C24.4404 9.93067 24.067 10.6827 23.3204 11.216C22.5737 11.7387 21.4857 12 20.0564 12H14.4884V0.799999H19.7364C21.059 0.799999 22.0777 1.06133 22.7924 1.584C23.507 2.096 23.8644 2.80533 23.8644 3.712C23.8644 4.26667 23.7364 4.75733 23.4804 5.184C23.2244 5.61067 22.8724 5.94133 22.4244 6.176ZM16.5684 2.432V5.52H19.5124C20.2377 5.52 20.7924 5.392 21.1764 5.136C21.571 4.86933 21.7684 4.48533 21.7684 3.984C21.7684 3.472 21.571 3.088 21.1764 2.832C20.7924 2.56533 20.2377 2.432 19.5124 2.432H16.5684ZM19.9284 10.368C21.539 10.368 22.3444 9.82933 22.3444 8.752C22.3444 7.67467 21.539 7.136 19.9284 7.136H16.5684V10.368H19.9284ZM31.8923 12.16C30.7509 12.16 29.7216 11.9147 28.8043 11.424C27.8869 10.9227 27.1669 10.2347 26.6443 9.36C26.1216 8.47467 25.8603 7.488 25.8603 6.4C25.8603 5.312 26.1216 4.33067 26.6443 3.456C27.1669 2.57067 27.8869 1.88267 28.8043 1.392C29.7216 0.890666 30.7509 0.639999 31.8923 0.639999C33.0336 0.639999 34.0629 0.890666 34.9803 1.392C35.8976 1.88267 36.6176 2.56533 37.1403 3.44C37.6629 4.31467 37.9243 5.30133 37.9243 6.4C37.9243 7.49867 37.6629 8.48533 37.1403 9.36C36.6176 10.2347 35.8976 10.9227 34.9803 11.424C34.0629 11.9147 33.0336 12.16 31.8923 12.16ZM31.8923 10.336C32.6389 10.336 33.3109 10.1707 33.9083 9.84C34.5056 9.49867 34.9749 9.02933 35.3163 8.432C35.6576 7.824 35.8283 7.14667 35.8283 6.4C35.8283 5.65333 35.6576 4.98133 35.3163 4.384C34.9749 3.776 34.5056 3.30667 33.9083 2.976C33.3109 2.63467 32.6389 2.464 31.8923 2.464C31.1456 2.464 30.4736 2.63467 29.8763 2.976C29.2789 3.30667 28.8096 3.776 28.4683 4.384C28.1269 4.98133 27.9563 5.65333 27.9563 6.4C27.9563 7.14667 28.1269 7.824 28.4683 8.432C28.8096 9.02933 29.2789 9.49867 29.8763 9.84C30.4736 10.1707 31.1456 10.336 31.8923 10.336ZM44.945 12.16C43.3983 12.16 42.193 11.728 41.329 10.864C40.465 9.98933 40.033 8.74133 40.033 7.12V0.799999H42.113V7.04C42.113 9.23733 43.0623 10.336 44.961 10.336C46.849 10.336 47.793 9.23733 47.793 7.04V0.799999H49.841V7.12C49.841 8.74133 49.409 9.98933 48.545 10.864C47.6917 11.728 46.4917 12.16 44.945 12.16ZM54.8229 2.56H51.1109V0.799999H60.6149V2.56H56.9029V12H54.8229V2.56Z" fill="white"/>
</svg>
