<svg width="68" height="13" viewBox="0 0 68 13" fill="none" xmlns="http://www.w3.org/2000/svg">
<path d="M4.976 12.16C4.112 12.16 3.27467 12.0373 2.464 11.792C1.664 11.5467 1.02933 11.2213 0.56 10.816L1.28 9.2C1.73867 9.56267 2.29867 9.86133 2.96 10.096C3.632 10.32 4.304 10.432 4.976 10.432C5.808 10.432 6.42667 10.2987 6.832 10.032C7.248 9.76533 7.456 9.41333 7.456 8.976C7.456 8.656 7.33867 8.39467 7.104 8.192C6.88 7.97867 6.592 7.81333 6.24 7.696C5.888 7.57867 5.408 7.44533 4.8 7.296C3.94667 7.09333 3.25333 6.89067 2.72 6.688C2.19733 6.48533 1.744 6.17067 1.36 5.744C0.986667 5.30667 0.8 4.72 0.8 3.984C0.8 3.36533 0.965333 2.80533 1.296 2.304C1.63733 1.792 2.144 1.38667 2.816 1.088C3.49867 0.789333 4.33067 0.639999 5.312 0.639999C5.99467 0.639999 6.66667 0.725333 7.328 0.896C7.98933 1.06667 8.56 1.312 9.04 1.632L8.384 3.248C7.89333 2.96 7.38133 2.74133 6.848 2.592C6.31467 2.44267 5.79733 2.368 5.296 2.368C4.47467 2.368 3.86133 2.50667 3.456 2.784C3.06133 3.06133 2.864 3.42933 2.864 3.888C2.864 4.208 2.976 4.46933 3.2 4.672C3.43467 4.87467 3.728 5.03467 4.08 5.152C4.432 5.26933 4.912 5.40267 5.52 5.552C6.352 5.744 7.03467 5.94667 7.568 6.16C8.10133 6.36267 8.55467 6.67733 8.928 7.104C9.312 7.53067 9.504 8.10667 9.504 8.832C9.504 9.45067 9.33333 10.0107 8.992 10.512C8.66133 11.0133 8.15467 11.4133 7.472 11.712C6.78933 12.0107 5.95733 12.16 4.976 12.16ZM19.9665 10.256V12H11.5665V0.799999H19.7425V2.544H13.6465V5.456H19.0545V7.168H13.6465V10.256H19.9665ZM29.5493 9.408H23.9493L22.8453 12H20.7012L25.7413 0.799999H27.7893L32.8453 12H30.6693L29.5493 9.408ZM28.8612 7.776L26.7493 2.88L24.6533 7.776H28.8612ZM41.5976 12L39.3096 8.72C39.2136 8.73067 39.0696 8.736 38.8776 8.736H36.3496V12H34.2696V0.799999H38.8776C39.8483 0.799999 40.691 0.959999 41.4056 1.28C42.131 1.6 42.6856 2.05867 43.0696 2.656C43.4536 3.25333 43.6456 3.96267 43.6456 4.784C43.6456 5.62667 43.4376 6.352 43.0216 6.96C42.6163 7.568 42.0296 8.02133 41.2616 8.32L43.8376 12H41.5976ZM41.5496 4.784C41.5496 4.06933 41.315 3.52 40.8456 3.136C40.3763 2.752 39.6883 2.56 38.7816 2.56H36.3496V7.024H38.7816C39.6883 7.024 40.3763 6.832 40.8456 6.448C41.315 6.05333 41.5496 5.49867 41.5496 4.784ZM51.1568 12.16C50.0261 12.16 49.0021 11.9147 48.0848 11.424C47.1781 10.9227 46.4634 10.2347 45.9408 9.36C45.4288 8.48533 45.1728 7.49867 45.1728 6.4C45.1728 5.30133 45.4341 4.31467 45.9568 3.44C46.4794 2.56533 47.1941 1.88267 48.1008 1.392C49.0181 0.890666 50.0421 0.639999 51.1728 0.639999C52.0901 0.639999 52.9274 0.8 53.6848 1.12C54.4421 1.44 55.0821 1.904 55.6048 2.512L54.2608 3.776C53.4501 2.90133 52.4528 2.464 51.2688 2.464C50.5008 2.464 49.8128 2.63467 49.2048 2.976C48.5968 3.30667 48.1221 3.77067 47.7808 4.368C47.4394 4.96533 47.2688 5.64267 47.2688 6.4C47.2688 7.15733 47.4394 7.83467 47.7808 8.432C48.1221 9.02933 48.5968 9.49867 49.2048 9.84C49.8128 10.1707 50.5008 10.336 51.2688 10.336C52.4528 10.336 53.4501 9.89333 54.2608 9.008L55.6048 10.288C55.0821 10.896 54.4368 11.36 53.6688 11.68C52.9114 12 52.0741 12.16 51.1568 12.16ZM67.5498 0.799999V12H65.4698V7.2H59.6778V12H57.5978V0.799999H59.6778V5.424H65.4698V0.799999H67.5498Z" fill="white"/>
</svg>
