<svg width="48" height="13" viewBox="0 0 48 13" fill="none" xmlns="http://www.w3.org/2000/svg">
<path d="M4.976 12.16C4.112 12.16 3.27467 12.0373 2.464 11.792C1.664 11.5467 1.02933 11.2213 0.56 10.816L1.28 9.2C1.73867 9.56267 2.29867 9.86133 2.96 10.096C3.632 10.32 4.304 10.432 4.976 10.432C5.808 10.432 6.42667 10.2987 6.832 10.032C7.248 9.76533 7.456 9.41333 7.456 8.976C7.456 8.656 7.33867 8.39467 7.104 8.192C6.88 7.97867 6.592 7.81333 6.24 7.696C5.888 7.57867 5.408 7.44533 4.8 7.296C3.94667 7.09333 3.25333 6.89067 2.72 6.688C2.19733 6.48533 1.744 6.17067 1.36 5.744C0.986667 5.30667 0.8 4.72 0.8 3.984C0.8 3.36533 0.965333 2.80533 1.296 2.304C1.63733 1.792 2.144 1.38667 2.816 1.088C3.49867 0.789333 4.33067 0.639999 5.312 0.639999C5.99467 0.639999 6.66667 0.725333 7.328 0.896C7.98933 1.06667 8.56 1.312 9.04 1.632L8.384 3.248C7.89333 2.96 7.38133 2.74133 6.848 2.592C6.31467 2.44267 5.79733 2.368 5.296 2.368C4.47467 2.368 3.86133 2.50667 3.456 2.784C3.06133 3.06133 2.864 3.42933 2.864 3.888C2.864 4.208 2.976 4.46933 3.2 4.672C3.43467 4.87467 3.728 5.03467 4.08 5.152C4.432 5.26933 4.912 5.40267 5.52 5.552C6.352 5.744 7.03467 5.94667 7.568 6.16C8.10133 6.36267 8.55467 6.67733 8.928 7.104C9.312 7.53067 9.504 8.10667 9.504 8.832C9.504 9.45067 9.33333 10.0107 8.992 10.512C8.66133 11.0133 8.15467 11.4133 7.472 11.712C6.78933 12.0107 5.95733 12.16 4.976 12.16ZM21.5185 0.799999V12H19.4385V7.2H13.6465V12H11.5665V0.799999H13.6465V5.424H19.4385V0.799999H21.5185ZM29.7516 12.16C28.6103 12.16 27.581 11.9147 26.6636 11.424C25.7463 10.9227 25.0263 10.2347 24.5036 9.36C23.981 8.47467 23.7196 7.488 23.7196 6.4C23.7196 5.312 23.981 4.33067 24.5036 3.456C25.0263 2.57067 25.7463 1.88267 26.6636 1.392C27.581 0.890666 28.6103 0.639999 29.7516 0.639999C30.893 0.639999 31.9223 0.890666 32.8396 1.392C33.757 1.88267 34.477 2.56533 34.9996 3.44C35.5223 4.31467 35.7836 5.30133 35.7836 6.4C35.7836 7.49867 35.5223 8.48533 34.9996 9.36C34.477 10.2347 33.757 10.9227 32.8396 11.424C31.9223 11.9147 30.893 12.16 29.7516 12.16ZM29.7516 10.336C30.4983 10.336 31.1703 10.1707 31.7676 9.84C32.365 9.49867 32.8343 9.02933 33.1756 8.432C33.517 7.824 33.6876 7.14667 33.6876 6.4C33.6876 5.65333 33.517 4.98133 33.1756 4.384C32.8343 3.776 32.365 3.30667 31.7676 2.976C31.1703 2.63467 30.4983 2.464 29.7516 2.464C29.005 2.464 28.333 2.63467 27.7356 2.976C27.1383 3.30667 26.669 3.776 26.3276 4.384C25.9863 4.98133 25.8156 5.65333 25.8156 6.4C25.8156 7.14667 25.9863 7.824 26.3276 8.432C26.669 9.02933 27.1383 9.49867 27.7356 9.84C28.333 10.1707 29.005 10.336 29.7516 10.336ZM42.5964 0.799999C43.567 0.799999 44.4097 0.959999 45.1244 1.28C45.8497 1.6 46.4044 2.05867 46.7884 2.656C47.1724 3.25333 47.3644 3.96267 47.3644 4.784C47.3644 5.59467 47.1724 6.304 46.7884 6.912C46.4044 7.50933 45.8497 7.968 45.1244 8.288C44.4097 8.608 43.567 8.768 42.5964 8.768H40.0684V12H37.9884V0.799999H42.5964ZM42.5004 7.008C43.407 7.008 44.095 6.816 44.5644 6.432C45.0337 6.048 45.2684 5.49867 45.2684 4.784C45.2684 4.06933 45.0337 3.52 44.5644 3.136C44.095 2.752 43.407 2.56 42.5004 2.56H40.0684V7.008H42.5004Z" fill="white"/>
</svg>
