<svg width="155" height="48" viewBox="0 0 155 48" fill="none" xmlns="http://www.w3.org/2000/svg">
<g clip-path="url(#clip0)">
<path d="M13.1488 13.7858C8.37156 13.7858 3.63981 14.9232 0 16.8341V47.272H8.87204V22.8853C10.2825 22.4303 11.7384 22.1573 13.3763 22.1573C13.9223 22.1573 14.4227 22.1573 15.0142 22.2028C17.7441 22.3393 20.019 20.2009 20.019 17.4711V14.6957C17.6076 14.0133 15.7422 13.7858 13.1488 13.7858Z" fill="white"/>
<path d="M49.6379 33.2133V29.073C49.6379 20.3374 45.6341 13.5583 35.3516 13.5583C26.1156 13.5583 19.2455 20.2919 19.2455 31.1659C19.2455 41.4483 25.9791 48 36.6711 48C41.0843 48 45.5431 47.1355 48.5915 44.9517V37.4445C45.3611 39.3554 41.9943 40.4019 37.581 40.4019C33.1223 40.4019 28.5725 38.036 27.89 33.3953V33.2133H49.6379ZM35.1242 20.8834C39.3554 20.8834 41.2663 23.8408 41.3573 27.89H27.981C28.8 23.6133 31.3024 20.8834 35.1242 20.8834Z" fill="white"/>
<path d="M81.3042 22.5668L84.4436 21.6114L74.5706 47.272C74.5706 47.272 72.2502 48 69.4749 48C66.6995 48 64.1516 47.272 64.1516 47.272L57.418 29.71L54.9156 30.4379L48.6824 14.2863H54.9156C56.9175 14.2863 58.7374 15.5602 59.3744 17.4711L63.0597 28.0265L65.5621 27.2986L69.4749 38.491L74.3431 24.6597L71.2038 25.6152L74.0246 17.5166C74.7071 15.6057 76.4815 14.3318 78.4834 14.3318H84.4436L81.3042 22.5668Z" fill="#78A11B"/>
<path d="M101.915 13.5583C92.0872 13.5583 84.6711 20.5194 84.6711 30.8019C84.6711 41.0844 92.0417 48.0455 101.915 48.0455C111.742 48.0455 119.204 41.0844 119.204 30.8019C119.204 20.5194 111.742 13.5583 101.915 13.5583ZM101.915 40.3109C97.0919 40.3109 93.6341 36.6711 93.6341 30.7564C93.6341 24.8417 97.0919 21.2019 101.915 21.2019C106.737 21.2019 110.195 24.8417 110.195 30.7564C110.195 36.6711 106.692 40.3109 101.915 40.3109Z" fill="white"/>
<path d="M122.48 2.63886V47.272H131.352V0L122.48 2.63886Z" fill="white"/>
<path d="M152.645 39.1279C151.416 39.6284 150.097 39.9014 148.732 39.9014C146.093 39.9014 144.273 38.7185 144.273 34.9422V22.7033L147.412 21.7479L152.599 20.2009V14.2862H144.273V4.73175L142.044 5.41421L135.401 7.41611V15.2872V22.6578V37.308C135.401 45.2701 140.588 48.0455 146.275 48.0455C149.596 48.0455 152.417 47.454 154.783 46.2256L152.645 39.1279Z" fill="white"/>
</g>
<defs>
<clipPath id="clip0">
<path d="M0 0H154.783V48H0V0Z" fill="white"/>
</clipPath>
</defs>
</svg>
