<svg width="21" height="17" viewBox="0 0 21 17" fill="none" xmlns="http://www.w3.org/2000/svg">
<path d="M18.2567 4.71486C18.2694 4.89252 18.2694 5.07021 18.2694 5.24787C18.2694 10.6666 14.1451 16.9103 6.60694 16.9103C4.28459 16.9103 2.12723 16.2377 0.3125 15.0703C0.642462 15.1083 0.95969 15.121 1.30235 15.121C3.21857 15.121 4.98256 14.4738 6.3912 13.3697C4.58916 13.3317 3.079 12.1515 2.55868 10.5271C2.81251 10.5651 3.0663 10.5905 3.33282 10.5905C3.70083 10.5905 4.06888 10.5397 4.4115 10.4509C2.53333 10.0702 1.12465 8.42046 1.12465 6.42807V6.37733C1.67032 6.6819 2.30489 6.87225 2.97743 6.8976C1.87337 6.16155 1.15004 4.90521 1.15004 3.48388C1.15004 2.72247 1.35305 2.0245 1.7084 1.41536C3.72619 3.90267 6.7592 5.52701 10.1602 5.70471C10.0968 5.40014 10.0587 5.08291 10.0587 4.76564C10.0587 2.50673 11.8861 0.666641 14.1577 0.666641C15.3379 0.666641 16.4039 1.16157 17.1526 1.96106C18.079 1.7834 18.9673 1.44075 19.7541 0.971213C19.4495 1.92301 18.8023 2.72251 17.9521 3.23009C18.777 3.1413 19.5765 2.91282 20.3125 2.59559C19.7542 3.40775 19.0562 4.13107 18.2567 4.71486Z" fill="#EEEEF0"/>
</svg>
