<svg width="21" height="20" viewBox="0 0 21 20" fill="none" xmlns="http://www.w3.org/2000/svg">
<path d="M4.78918 19.9955H0.642783V6.64584H4.78918V19.9955ZM2.71375 4.82482C1.38815 4.82482 0.3125 3.72685 0.3125 2.40125C0.3125 1.07565 1.38815 0 2.71375 0C4.03935 0 5.115 1.07565 5.115 2.40125C5.115 3.72685 4.03935 4.82482 2.71375 4.82482ZM20.308 19.9955H16.1706V13.497C16.1706 11.9482 16.1393 9.96206 14.0148 9.96206C11.859 9.96206 11.5287 11.6447 11.5287 13.3854V19.9955H7.38681V6.64584H11.3636V8.46686H11.4216C11.9751 7.41799 13.3275 6.31109 15.3449 6.31109C19.5403 6.31109 20.3125 9.07387 20.3125 12.6624V19.9955H20.308Z" fill="#EEEEF0"/>
</svg>
